/* XPM */
static char * hitbox_xpm[] = {
"80 80 2 1",
" 	c #FF0000",
".	c #000000",
"                                                                                ",
"                                                                                ",
"                                                                                ",
"   ..........................................................................   ",
"   ..........................................................................   ",
"   ..........................................................................   ",
"   ..........................................................................   ",
"   ..........................................................................   ",
"   ..........................................................................   ",
"   ..........................................................................   ",
"   ..........................................................................   ",
"   ..........................................................................   ",
"   ..........................................................................   ",
"   ..........................................................................   ",
"   ..........................................................................   ",
"   ..........................................................................   ",
"   ..........................................................................   ",
"   ..........................................................................   ",
"   ..........................................................................   ",
"   ..........................................................................   ",
"   ..........................................................................   ",
"   ..........................................................................   ",
"   ..........................................................................   ",
"   ..........................................................................   ",
"   ..........................................................................   ",
"   ..........................................................................   ",
"   ..........................................................................   ",
"   ..........................................................................   ",
"   ..........................................................................   ",
"   ..........................................................................   ",
"   ..........................................................................   ",
"   ..........................................................................   ",
"   ..........................................................................   ",
"   ..........................................................................   ",
"   ..........................................................................   ",
"   ..........................................................................   ",
"   ..........................................................................   ",
"   ..........................................................................   ",
"   ..........................................................................   ",
"   ..........................................................................   ",
"   ..........................................................................   ",
"   ..........................................................................   ",
"   ..........................................................................   ",
"   ..........................................................................   ",
"   ..........................................................................   ",
"   ..........................................................................   ",
"   ..........................................................................   ",
"   ..........................................................................   ",
"   ..........................................................................   ",
"   ..........................................................................   ",
"   ..........................................................................   ",
"   ..........................................................................   ",
"   ..........................................................................   ",
"   ..........................................................................   ",
"   ..........................................................................   ",
"   ..........................................................................   ",
"   ..........................................................................   ",
"   ..........................................................................   ",
"   ..........................................................................   ",
"   ..........................................................................   ",
"   ..........................................................................   ",
"   ..........................................................................   ",
"   ..........................................................................   ",
"   ..........................................................................   ",
"   ..........................................................................   ",
"   ..........................................................................   ",
"   ..........................................................................   ",
"   ..........................................................................   ",
"   ..........................................................................   ",
"   ..........................................................................   ",
"   ..........................................................................   ",
"   ..........................................................................   ",
"   ..........................................................................   ",
"   ..........................................................................   ",
"   ..........................................................................   ",
"   ..........................................................................   ",
"   ..........................................................................   ",
"                                                                                ",
"                                                                                ",
"                                                                                "};
