/* XPM */
static char * ply_xpm[] = {
"50 77 2 1",
" 	c #FFFFFF",
".	c #4360DD",
"                                                  ",
" ................................................ ",
" ................................................ ",
" ................................................ ",
" ................................................ ",
" ................................................ ",
" ................................................ ",
" ................................................ ",
" ................................................ ",
" ................................................ ",
" ................................................ ",
" ................................................ ",
" ................................................ ",
" ................................................ ",
" ................................................ ",
" ................................................ ",
" ................................................ ",
" ................................................ ",
" ................................................ ",
" ................................................ ",
" ................................................ ",
" ................................................ ",
" ................................................ ",
" ................................................ ",
" ................................................ ",
" ................................................ ",
" ................................................ ",
" ................................................ ",
" ................................................ ",
" ................................................ ",
" ................................................ ",
" ................................................ ",
" ................................................ ",
" ................................................ ",
" ................................................ ",
" ................................................ ",
" ................................................ ",
" ................................................ ",
" ................................................ ",
" ................................................ ",
" ................................................ ",
" ................................................ ",
" ................................................ ",
" ................................................ ",
" ................................................ ",
" ................................................ ",
" ................................................ ",
" ................................................ ",
" ................................................ ",
" ................................................ ",
" ................................................ ",
" ................................................ ",
" ................................................ ",
" ................................................ ",
" ................................................ ",
" ................................................ ",
" ................................................ ",
" ................................................ ",
" ................................................ ",
" ................................................ ",
" ................................................ ",
" ................................................ ",
" ................................................ ",
" ................................................ ",
" ................................................ ",
" ................................................ ",
" ................................................ ",
" ................................................ ",
" ................................................ ",
" ................................................ ",
" ................................................ ",
" ................................................ ",
" ................................................ ",
" ................................................ ",
" ................................................ ",
" ................................................ ",
"                                                  "};
